<?xml version="1.0" encoding="utf-8"?>
<!-- Generator: Adobe Illustrator 19.2.0, SVG Export Plug-In . SVG Version: 6.00 Build 0)  -->
<svg version="1.1" id="Layer_1" xmlns="http://www.w3.org/2000/svg" xmlns:xlink="http://www.w3.org/1999/xlink" x="0px" y="0px"
	 viewBox="0 0 2608.8 2000" style="enable-background:new 0 0 2608.8 2000;" xml:space="preserve">
<style type="text/css">
	.st0{fill:#FFFFFF;}
	.st1{fill:#F7C9CF;}
	.st2{fill:#2D6163;}
	.st3{fill:#47989C;}
	.st4{fill:#BCBBE8;}
	.st5{fill:#CDC9ED;}
	.st6{fill:#E34830;}
	.st7{fill:#E4E3ED;}
	.st8{fill:#88B6B8;}
	.st9{fill:#6F6D7D;}
	.st10{fill:#FF5345;}
	.st11{fill:#6090FE;}
	.st12{fill:#966259;}
	.st13{fill:#6B4744;}
	.st14{fill:#F47458;}
	.st15{fill:#466EB6;}
	.st16{fill:#13375B;}
	.st17{fill:#F0F0F0;}
	.st18{fill:#E0E0E0;}
	.st19{fill:#B3B3B3;}
	.st20{fill:#B75742;}
	.st21{fill:#355389;}
	.st22{fill:#F7A491;}
	.st23{fill:#F48C7F;}
	.st24{fill:#F79C8D;}
	.st25{fill:#50BFA5;}
	.st26{fill:#FAE0B2;}
	.st27{fill:#30518A;}
	.st28{fill:#339E85;}
	.st29{fill:#4266B8;}
</style>
<g>
	
		<rect x="0" y="0" transform="matrix(-1 -1.224647e-016 1.224647e-016 -1 2608.7744 1999.9995)" class="st0" width="2608.8" height="2000"/>
	<g>
		<path class="st1" d="M2193.2,1831.9c257.3-69.7,245.4-396.1,112.7-565.4c-132.7-169.3-154.9-228.6-107.4-500.2
			c76-434.1-444.6-822.1-1098.3-466.1C548.1,600.9-29.5,1221.5,387.1,1831.9C758.1,1831.9,2193.2,1831.9,2193.2,1831.9z"/>
		<g>
			<path class="st2" d="M217.8,1824.7h2155.7c3.8,0,6.8,3.1,6.9,7c0,0,0,0.1,0,0.1c0.1,4-3,7.4-6.9,7.4H217.8c-4,0-7.3-3.3-7.3-7.3
				C210.5,1827.9,213.8,1824.7,217.8,1824.7z"/>
		</g>
		<g>
			<g>
				<g>
					<path class="st3" d="M1684.6,1467H763.7c-21.6,0-39-17.5-39-39V349c0-21.6,17.5-39,39-39h920.9c21.6,0,39,17.5,39,39v1079
						C1723.7,1449.5,1706.2,1467,1684.6,1467z"/>
					<rect x="742.8" y="520.7" class="st4" width="962.8" height="905.9"/>
				</g>
				<path class="st5" d="M742.8,1426.5V348.3c0-12,9.7-21.7,21.7-21.7h919.4c12,0,21.7,9.7,21.7,21.7v1078.2
					c0,12-9.7,21.7-21.7,21.7H764.4C752.5,1448.2,742.8,1438.5,742.8,1426.5z"/>
				<path class="st2" d="M1682.9,326.6H765.4c-12.5,0-22.6,9.3-22.6,20.8v77.3h962.8v-77.3C1705.6,336,1695.4,326.6,1682.9,326.6z"
					/>
				<polygon class="st6" points="773,364.8 814.2,386.6 814.2,342.9 				"/>
				<rect x="742.8" y="402" class="st7" width="962.8" height="111.5"/>
				<path class="st8" d="M1619.4,481.8H828.9c-8.4,0-15.1-6.8-15.1-15.1l0,0c0-8.4,6.8-15.1,15.1-15.1h790.6
					c8.4,0,15.1,6.8,15.1,15.1l0,0C1634.6,475,1627.8,481.8,1619.4,481.8z"/>
				<g>
					<g>
						<rect x="889.3" y="1061.3" class="st7" width="157.4" height="91"/>
						<rect x="889.3" y="956" class="st7" width="157.4" height="91"/>
						<rect x="889.3" y="1272.1" class="st7" width="157.4" height="91"/>
						<rect x="889.3" y="1166.7" class="st7" width="157.4" height="91"/>
						<rect x="889.3" y="671.4" class="st7" width="157.4" height="72.2"/>
						<rect x="889.3" y="758" class="st7" width="157.4" height="78.2"/>
						<rect x="894.7" y="765.2" class="st7" width="146.6" height="63.9"/>
						<rect x="889.3" y="850.6" class="st7" width="157.4" height="91"/>
						<rect x="1394.1" y="1166.7" class="st7" width="157.4" height="91"/>
						<rect x="1057.6" y="1272.1" class="st7" width="157.4" height="91"/>
						<rect x="1394.1" y="1061.3" class="st7" width="157.4" height="91"/>
						<rect x="1394.1" y="850.6" class="st7" width="157.4" height="91"/>
						<rect x="1394.1" y="956" class="st7" width="157.4" height="91"/>
						<rect x="1225.9" y="1272.1" class="st7" width="157.4" height="91"/>
						<rect x="1394.1" y="1272.1" class="st7" width="157.4" height="91"/>
						<rect x="889.3" y="584.7" class="st7" width="157.4" height="72.2"/>
						<rect x="1057.6" y="1166.7" class="st7" width="157.4" height="91"/>
						<rect x="1057.6" y="1061.3" class="st7" width="157.4" height="91"/>
						<rect x="1394.1" y="758" class="st7" width="157.4" height="78.2"/>
						<rect x="1057.6" y="584.7" class="st7" width="157.4" height="72.2"/>
						<rect x="1057.6" y="671.4" class="st7" width="157.4" height="72.2"/>
						<rect x="1057.6" y="850.6" class="st7" width="157.4" height="91"/>
						<rect x="1225.9" y="1166.7" class="st7" width="157.4" height="91"/>
						<rect x="1057.6" y="758" class="st7" width="157.4" height="78.2"/>
						<rect x="1057.6" y="956" class="st7" width="157.4" height="91"/>
						<rect x="1225.9" y="671.4" class="st7" width="157.4" height="72.2"/>
						<rect x="1225.9" y="758" class="st7" width="157.4" height="78.2"/>
						<rect x="1225.9" y="1061.3" class="st7" width="157.4" height="91"/>
						<rect x="1225.9" y="584.7" class="st7" width="157.4" height="72.2"/>
						<rect x="1225.9" y="850.6" class="st7" width="157.4" height="91"/>
						<rect x="1225.9" y="956" class="st7" width="157.4" height="91"/>
						<rect x="1562.4" y="1272.1" class="st7" width="137.7" height="91"/>
						<rect x="1057.6" y="1377.5" class="st7" width="157.4" height="42.2"/>
						<rect x="1225.9" y="1377.5" class="st7" width="157.4" height="42.2"/>
						<rect x="1394.1" y="1377.5" class="st7" width="157.4" height="42.2"/>
						<rect x="748.2" y="1377.5" class="st7" width="130.3" height="42.2"/>
						<rect x="748.2" y="1272.1" class="st7" width="130.3" height="91"/>
						<rect x="889.3" y="1377.5" class="st7" width="157.4" height="42.2"/>
						<rect x="1562.4" y="1377.5" class="st7" width="137.7" height="42.2"/>
						<rect x="1562.4" y="1166.7" class="st7" width="137.7" height="91"/>
						<rect x="1562.4" y="758" class="st7" width="137.7" height="78.2"/>
						<rect x="1394.1" y="671.4" class="st7" width="157.4" height="72.2"/>
						<rect x="1399.6" y="678.5" class="st7" width="146.6" height="57.9"/>
						<rect x="1562.4" y="850.6" class="st7" width="137.7" height="91"/>
						<rect x="1562.4" y="671.4" class="st7" width="137.7" height="72.2"/>
						<rect x="1562.4" y="956" class="st7" width="137.7" height="91"/>
						<rect x="1562.4" y="1061.3" class="st7" width="137.7" height="91"/>
						<rect x="748.2" y="1166.7" class="st7" width="130.3" height="91"/>
						<rect x="1562.4" y="584.7" class="st7" width="137.7" height="72.2"/>
						<rect x="1394.1" y="584.7" class="st7" width="157.4" height="72.2"/>
						<rect x="748.2" y="758" class="st7" width="130.3" height="78.2"/>
						<rect x="748.2" y="525.7" class="st7" width="957.4" height="44.7"/>
						<rect x="748.2" y="1061.3" class="st7" width="130.3" height="91"/>
						<rect x="748.2" y="956" class="st7" width="130.3" height="91"/>
						<rect x="748.2" y="850.6" class="st7" width="130.3" height="91"/>
						<rect x="748.2" y="584.7" class="st7" width="130.3" height="72.2"/>
						<rect x="748.2" y="671.4" class="st7" width="130.3" height="72.2"/>
					</g>
				</g>
				<path class="st7" d="M1561.5,390.7h-31c-2,0-3.7-1.6-3.7-3.7l0,0c0-2,1.6-3.7,3.7-3.7h31c2,0,3.7,1.6,3.7,3.7l0,0
					C1565.2,389,1563.5,390.7,1561.5,390.7z"/>
				<g>
					<rect x="1587.7" y="363.2" class="st7" width="35.5" height="27.4"/>
					
						<rect x="1595.1" y="362.6" transform="matrix(-1.836970e-016 1 -1 -1.836970e-016 1982.3823 -1228.4644)" class="st9" width="20.7" height="28.7"/>
				</g>
				<g>
					<path class="st7" d="M1667.9,390.7c-0.1-0.1-9.6-11.2-9.7-11.4h-0.1c-0.7,1-9,11.2-9.1,11.4h-5.9l12.2-13.7l-11.7-13.4h6
						c6.4,7.7,7.5,9.1,8.9,11h0.2c2.1-3,3.7-4.6,9-11h5.9l-12.1,13.2l12.4,13.9H1667.9z"/>
				</g>
			</g>
			<path class="st10" d="M1441.9,1174.3c7.6,2.1,19.8,10.3,30.3,19.2c11.9-14.3,41.8-49.8,61.9-65.1c-26.9,31.2-47.7,56.9-60.5,89.6
				C1465.8,1196.5,1451.8,1182.2,1441.9,1174.3z"/>
			<path class="st11" d="M931.9,668.8c7.6,2.1,19.8,10.3,30.3,19.2c11.9-14.3,41.8-49.8,61.9-65.1c-26.9,31.2-47.7,56.9-60.5,89.6
				C955.7,691,941.8,676.7,931.9,668.8z"/>
			<path class="st10" d="M1273.8,973.5c7.6,2.1,19.8,10.3,30.3,19.2c11.9-14.3,41.8-49.8,61.9-65.1c-26.9,31.2-47.7,56.9-60.5,89.6
				C1297.6,995.7,1283.7,981.4,1273.8,973.5z"/>
			<path class="st10" d="M766.6,973.5c7.6,2.1,19.8,10.3,30.3,19.2c11.9-14.3,41.8-49.8,61.9-65.1c-26.9,31.2-47.7,56.9-60.5,89.6
				C790.5,995.7,776.6,981.4,766.6,973.5z"/>
			<path class="st10" d="M1426.7,763.9c7.6,2.1,19.8,10.3,30.3,19.2c11.9-14.3,41.8-49.8,61.9-65.1c-26.9,31.2-47.7,56.9-60.5,89.6
				C1450.6,786.1,1436.6,771.8,1426.7,763.9z"/>
			<path class="st10" d="M931.9,1290.1c7.6,2.1,19.8,10.3,30.3,19.2c11.9-14.3,41.8-49.8,61.9-65.1c-26.9,31.2-47.7,56.9-60.5,89.6
				C955.7,1312.3,941.8,1298,931.9,1290.1z"/>
			<path class="st11" d="M1109.4,1290.1c7.6,2.1,19.8,10.3,30.3,19.2c11.9-14.3,41.8-49.8,61.9-65.1c-26.9,31.2-47.7,56.9-60.5,89.6
				C1133.2,1312.3,1119.3,1298,1109.4,1290.1z"/>
		</g>
		<g>
			<g>
				<g>
					<path class="st12" d="M2006,1233.7c-11.4-12.3-35.4-63.7-43.5-78.3c-1.3-2.8-1.7-13-5.6-22.4c-3.8-9.2-13.6-22.2-18.5-18.3
						c-4.9,3.9,10.1,15,5.6,14c-4.5-0.9-21.3-32.7-25.8-29.1c-4.4,3.5,13.3,32.4,9.3,31.6c-4-0.8-13.6-28.9-19.8-23.9
						c-6.3,5,14.8,31.5,11.4,34.1c-3.4,2.7-3.5-12.1-8.6-8c-5,4,6.8,20,4.5,19.5c-2.4-0.5-5.2-2.9-6.1,0.6c-0.9,3.9,26.9,18,30.8,26
						l0,0c7.4,21.7,20.4,61.3,37.6,81.3c21,24.5,81.6,92.3,81.6,92.3l25.2-47.7C2084.3,1305.4,2019.5,1248.3,2006,1233.7z"/>
					<path class="st12" d="M2234.7,1406.4c9.4,13.4,53.5,46.9,65.7,57.7c1.4,0.1,9.7,1.3,20.2,9.9c7.5,6.1,24.4,10.9,19.7,14.8
						c-4.7,3.9-18.2-6.1-18.3-1.6c0,4.5,26.8,27.1,22.5,30.6c-4.3,3.5-28.1-19.4-28.2-15.4c0,4,24.1,22.7,18,27.6
						c-6.1,4.9-26.3-24.4-29.5-21.7c-3.3,2.7,10,20.8,5.1,24.8c-4.9,4-16.8-25.6-16.9-23.3c0,2.4,0.7,19.3-2.8,19.4
						c-3.9,0.1-10.6-43.1-17.4-48.5l0,0c-19.2-11.6-55.2-31.5-69.8-52.7c-14.9-21.6-30.5-44.7-37.7-65.5
						c-13.2-38.1-10.3-68.4-10.3-68.4s14.7-9,29.1,20.8C2196.8,1341.2,2223.5,1390.5,2234.7,1406.4z"/>
					<path class="st13" d="M1942.3,1137.2c-1.6,2.1-2.5,4.5-3.2,7c0,0.4-2.7,8.4,2.6,16.2
						C1940.2,1154.7,1938.5,1148.4,1942.3,1137.2z"/>
				</g>
				<path class="st12" d="M2207.4,1740.2c0,0,3.8,33.4,10.1,48c6.2,14.6,26.9,23.8,45,27.3c18.1,3.6,12.1,6.4,9.4,9.1
					c-2.7,2.7-81.2,4.4-95.1,1.9c0,0,5.3-27.3,5.3-31.6c0-4.3-21.7-71.4-21.7-71.4L2207.4,1740.2z"/>
				<path class="st14" d="M2176.9,1826.5c0,0,1.1-5.6,2.3-12.1c15.2,2,49.8-1.5,67.2-3.5c5.3,2,11.8,2.6,17.1,3.7
					c18.1,3.6,16.8,8.3,12.2,11.6C2272.6,1828.4,2190.7,1829,2176.9,1826.5z"/>
				<path class="st12" d="M2052.9,1732.4c0,0,2.1,41-2.3,55.8c-4.5,15.2-11,17.8-28.8,22.7c-17.5,4.9-10.8,12.6-8.2,15.3
					c2.7,2.7,63.8,2.8,77.7,0.3c0,0-5.3-27.3-5.3-31.6c0-4.3,6.5-73.3,6.5-73.3L2052.9,1732.4z"/>
				<path class="st14" d="M2091.3,1826.5c0,0-1.1-5.6-2.3-12.1c-15.2,2-49.8-1.5-67.2-3.5c-6,1.5-10.9,2.7-16.2,4.6
					c-17.3,6.3-15.8,8-13.1,10.7C1995.2,1828.9,2077.4,1829,2091.3,1826.5z"/>
				<path class="st15" d="M2227,1743.5c0,0-41.6,11.2-88.7,11.2s-139.9-24-139.9-24s25.6-61.8,34.4-109.3
					c8.8-47.4,15.2-129,15.2-129h140.7l8.8,56.4L2227,1743.5z"/>
				<path class="st14" d="M2167.2,1292.3c0,0,9.2,10.7,9.2,43.7c0,33,1.6,82.6,4.3,99.7c2.7,17.1,10.7,59.4,10.7,59.4
					s-23.5,19.5-84.2,14.1c-60.8-5.3-64-13.5-64-13.5s8.5-137.3,8.5-151.7c0-14.4,13-56,13-56s35.1-3.6,51.1-2.4
					C2131.8,1286.8,2167.2,1292.3,2167.2,1292.3z"/>
				<path class="st16" d="M2042.3,1155.5c0,0-26.6,4.7-26.6,31c0,18.3,11.5,24.2,11.5,24.2s-8.9,28.4,13.2,45.8
					c16.5,13,33.9,3.3,33.9,3.3s6.9,30.9,49.1,25.5c36-4.6,33-33.3,33-33.3s21.4,5.7,37.1-14c18.9-23.7,11.7-54.7-13.9-65.9
					c0,0,12.7-34.2-21.8-47.9c-27.5-11-47.9,6.8-47.9,6.8s-10.3-19.6-43.6-8.5C2040.4,1131.1,2042.3,1155.5,2042.3,1155.5z"/>
				
					<ellipse transform="matrix(0.4276 -0.9039 0.9039 0.4276 122.0098 2641.1572)" class="st12" cx="2146.7" cy="1224.2" rx="14.5" ry="9.8"/>
				
					<ellipse transform="matrix(0.9984 -5.689696e-002 5.689696e-002 0.9984 -66.0018 119.4025)" class="st12" cx="2063.9" cy="1218.8" rx="9.8" ry="14.5"/>
				<path class="st12" d="M2094.3,1258.1l-1.6,31.1c0,0-0.5,12.1,11.9,14.9c12.4,2.8,24.8-5.8,25.8-15.5c0.1-1.2-1.9-44.3-1.9-44.3
					L2094.3,1258.1z"/>
				<path class="st13" d="M2128.5,1244.3l-34.2,13.8l-0.6,11.1c5.9,0.6,14.7,1,22-2.5c6.2-2.9,9.9-7.1,13.2-12.9
					C2128.7,1248.2,2128.5,1244.3,2128.5,1244.3z"/>
				<path class="st12" d="M2120.9,1159.4c0,0,15,5.9,22.7,22.4s8.9,61.6-24.9,77.6c-33.8,15.9-52.2-16.8-51.6-45.5
					C2067.7,1179.9,2085.4,1150.1,2120.9,1159.4z"/>
			</g>
			<g>
				<g>
					<g>
						<g>
							<path class="st0" d="M1944.9,1773.1l2.2,33.2c0.8,11.1,10.4,19.5,21.5,18.7l1.1-0.1c11.1-0.8,19.5-10.4,18.7-21.5l-2.2-33.2
								L1944.9,1773.1z"/>
							<path class="st17" d="M1979.4,1821.6c-2.8,1.8-6,3-9.6,3.2l-1.1,0.1c-11.1,0.8-20.8-7.6-21.6-18.7l-2.2-33.2l20.7-1.5
								l2.2,33.2C1968.3,1812.3,1973,1818.6,1979.4,1821.6z"/>
							<polygon class="st10" points="1890.1,926.3 1944.9,1773.1 1986.3,1770.1 1931.5,923.3 1909.7,906 							"/>
							<polygon class="st18" points="1910.8,924.8 1965.6,1771.6 1944.9,1773.1 1890.1,926.3 							"/>
							<path class="st0" d="M1901,878.3l-10.9,48c3.5,13.1,15.9,14.7,23.7-1.9c4.7-9.9,15.3,19.4,17.7-1.1l-17.7-45.9L1901,878.3z"
								/>
							<path class="st19" d="M1942.6,1767.2l0.6,8.6c0.1,0.9,0.8,1.5,1.7,1.4l42.1-3c0.9-0.1,1.5-0.8,1.4-1.7l-0.6-8.6
								c-0.1-0.9-0.8-1.5-1.7-1.4l-42.1,3C1943.2,1765.6,1942.5,1766.3,1942.6,1767.2z"/>
						</g>
						<path class="st10" d="M1903.8,857.8l-2.8,20.5c3.1,3.7,7.4,3.4,12.8-0.9l-5.7-19.9c-0.3-1-1.2-1.7-2.3-1.6l0,0
							C1904.8,856,1904,856.8,1903.8,857.8z"/>
					</g>
				</g>
			</g>
			<path class="st12" d="M1951.9,1165.7c-5.8-3.9-7.4-19.1-7.8-32.1c0-7.6-10.2-19-6.7-23.8c1.1-1.1,13.7,9.4,19.5,23.2
				C1959.2,1138.3,1959.1,1170.6,1951.9,1165.7z"/>
			<path class="st12" d="M1903.8,1144.5c6.8-11.2,8-10.9,4.6-12.5c4.6-7.1,0.6-9.1-1.1-8.7c0.9-5.9-1.2-12.1-4.6-6.4
				C1899.3,1122.7,1901.4,1148.4,1903.8,1144.5z"/>
		</g>
		<g>
			<path class="st20" d="M1771.4,1122.2c0,0-21.1-7.7-34.8,13.7c-13.7,21.4-6.3,19.4-12.9,30.1c-6.6,10.7-9.8,41.1-12.1,57.6
				c-23.4,167.7,256.7,181.3,147.3-32.5c-10.3-20-18.9-32.1-28.2-53.5C1821.5,1116.2,1782.5,1117,1771.4,1122.2z"/>
			<path class="st21" d="M1831.3,1278.8l28.2-9.9c0,0,11.2,14.3,14.6,50.2c3.4,35.8,0,56.9,0,56.9h-31.9L1831.3,1278.8z"/>
			<path class="st15" d="M1774.7,1259.6c9.6,1,80.9-5.8,84.8,9.4c21.3,81.5-8,194-15.5,201.5c-7.5,7.5-130-16.9-130-16.9
				S1694.8,1251.4,1774.7,1259.6z"/>
			<g>
				<path class="st22" d="M1676,1176c0,0,9.3-3.6,16.5-16.9c4.6-8.5,18.2-19.4,12.6-21.2c-5.7-1.8-14.4,12.6-16,8.5
					c-1.6-4.1,14.6-35.2,9.5-36.8c-5.1-1.6-18.6,28.7-20.1,25c-1.5-3.7,9-31.3,3.2-31.2c-7.6,0.1-11.9,31.4-15.8,30.2
					c-3.9-1.2,1.8-27.8-4.1-29.6c-5.9-1.8-5,32.9-7.1,31.9c-1.1-0.5-6.3-17.3-9.5-16.1c-3.6,1.4,8.1,39,3.8,46.6
					c-4.3,7.6-31.3,92.2-19.5,104c12.9,12.9,85.2,49.1,102.3,44c17.1-5.1,26.9-22,22.8-32.4c-4.1-10.4-85-33.8-86.3-37
					S1676,1176,1676,1176z"/>
				<path class="st23" d="M1678.6,1143.7c-2-1.4-4.4-2.2-6.9-2.7c-0.4,0-8.2-2.1-15.6,3.4
					C1661.6,1142.6,1667.6,1140.7,1678.6,1143.7z"/>
			</g>
			<path class="st24" d="M1607.8,1716.8c0,0-15.8,64.5-27.6,74.7c-11.8,10.1-50.3,29.5-40.2,31.6c10.1,2.1,84.5,3.8,82.5-8.6
				c-2-12.4-4.2-20.3-4.2-20.3l19.7-46.1L1607.8,1716.8z"/>
			<path class="st25" d="M1534.9,1825.7c18.2,1.8,71.2,3.7,86.7,1.7c0,0,2.9-0.6,0.9-13c-0.5-3-1-5.8-1.5-8.3
				c-14,3.7-44.5-4.2-56.6-5.8c-13.1,6.3-27.9,15.7-32.7,16.5C1524.7,1818.1,1524.7,1824.7,1534.9,1825.7z"/>
			<path class="st24" d="M1781.5,1770.9c0,0,1.7,16.3,1.7,23.5c0,7.2-6.7,27.5-3.6,30.6c3.1,3.1,91.8,2.7,91.8-0.2
				c0-2.9-15.7-11.8-37-17.9c-21.3-6.1-28.6-29.7-23-43.2L1781.5,1770.9z"/>
			<path class="st25" d="M1872.8,1825c0-2.7-14.5-11.1-33.4-16.8c-20.1,6.8-48,1.2-58.4-0.8c-3.2,8.4-4.2,16.3-2.6,17.9
				C1781.5,1828.4,1872.8,1827.9,1872.8,1825z"/>
			<path class="st14" d="M1685.2,1498.1l-15.9,14.1c0,0-17.9,48.5-19,51.7c-1.5,4.5-59.5,191.4-59.5,191.4l40.4,14.5
				c0,0,40.1-78.1,46.7-105.2c6.6-27.1,73.1-140.6,73.1-140.6L1685.2,1498.1z"/>
			<path class="st14" d="M1755.4,1526.8l19.4,247.8h44.8c0,0,16.1-185.5,10.5-250.6L1755.4,1526.8z"/>
			<path class="st25" d="M1834,1277.2c0,0-28.5-7.5-60.9-9.3c-16.8-0.9-39.3,2.6-39.3,2.6s-20.5,45.9-26.6,83.6
				c-6.1,37.6-39.3,158.3-39.3,158.3s67.5,52,166,17.7V1277.2z"/>
			<path class="st24" d="M1757.3,1236.1c0,0,0.9,29.4-1.9,32.1c-2.8,2.8-6.6,7.3-2.6,14.3c4.1,7,21.7,2.5,29.9-1.5
				c7.9-3.9,13-11,13-11l-4.1-46.5L1757.3,1236.1z"/>
			<path class="st20" d="M1769,1248.3c5.7-2,15.5-5.8,23.2-18.2l-0.6-6.5l-34.3,12.5c0,0,0.2,7.2,0.1,14.8
				C1762.2,1250.7,1766.3,1249.2,1769,1248.3z"/>
			<path class="st24" d="M1797.7,1190.3c0,0,0.8-17.3,11.4-13.9c10.6,3.4,2.5,29.4-6.3,28.6
				C1794,1204.1,1797.7,1190.3,1797.7,1190.3z"/>
			<path class="st24" d="M1764.3,1133.9c0,0-16.6-0.4-25.1,12.5c-8.5,12.9-17.7,49.8-3.7,75.3c14,25.5,31.9,19.2,39.3,16.6
				c7.4-2.6,22-8.3,29.3-32.1C1811.5,1182.4,1806.2,1128.9,1764.3,1133.9z"/>
			<path class="st21" d="M1830.9,1276.5c-7.6,17.1-26.2,53.9-25.3,94.5c0.9,42.5,32.9,70.1,32.9,70.1v21c0,0-35.3-5.6-48.8-60.5
				c-13.5-54.9,19-129.5,19-129.5s4.6-3.3,13.8-0.7C1828.5,1273,1830.9,1276.5,1830.9,1276.5z"/>
			<path class="st21" d="M1753.4,1267.8c0,0-26.5,142.7-60.9,152l6-24.3c0,0,35.4-115.5,35.4-124.8
				C1733.9,1261.2,1753.4,1267.8,1753.4,1267.8z"/>
			<g>
				<polygon class="st14" points="1681.6,1512 1784.5,1512 1784.5,1394.8 1681.6,1399.3 				"/>
				<g>
					<path class="st20" d="M1681.6,1390.2h98.3c2.5,0,4.6,2,4.6,4.6l0,0c0,2.5-2,4.6-4.6,4.6h-98.3l0.1,0
						C1688.5,1396.8,1688.4,1392.7,1681.6,1390.2z"/>
					<path class="st26" d="M1684.4,1391.6h92.1c1.8,0,3.2,1.4,3.2,3.2l0,0c0,1.8-1.4,3.2-3.2,3.2h-92.1
						C1687.5,1396,1687.5,1393.5,1684.4,1391.6z"/>
				</g>
				<g>
					<path class="st16" d="M1726.7,1392.2h6.5c1.4,0,2.5,1.1,2.5,2.5v0.2h-9V1392.2z"/>
					<path class="st21" d="M1732.9,1392.2c-1.5,0-3.9,1.3-5.2,2.9l-15.4,19.1l-9,0l14.6-18.1c1.7-2.1,4.8-3.9,6.8-3.9L1732.9,1392.2
						z"/>
				</g>
			</g>
			<path class="st24" d="M1834,1277.2c0,0-7.8,7.8-16.1,37.3c-8.3,29.5-12.5,98.5-19.7,105.7c-7.2,7.2-54.2,44.6-62.7,43.4
				c-8.5-1.3-27.5-23.4-33.4-23.4c-5.9,0-5.2,5.3-2.2,8.3c3,3,6.5,6.4,4.8,8.1c-1.8,1.8-1.8,1.8-1.8,1.8s-26.3-6.9-30.7-4.3
				c-4.4,2.6,4.2,8.7,4.2,13.1c0,4.4-1.1,4.3-0.6,9.2c0.5,4.9,1.8,8.8,4.1,11.1c2.3,2.3,31.4,10.7,59.8,6.8
				c28.4-3.9,63.1-17.5,88.7-49.3c25.6-31.7,20.5-131.5,19.9-141.4C1846.9,1278.3,1834,1277.2,1834,1277.2z"/>
		</g>
		<g>
			<g>
				<path class="st22" d="M392.8,1714.4c0,0-4.1,41.5-14.8,49.1c-10.7,7.6-24.9,35.8-17.8,51c2.2,4.8,6.7,7.5,11.7,9
					c15,4.5,30.9-3.1,37.3-17.2c3.6-7.9,6.7-18.4,7.3-31.6c1.6-33.7,12.3-50.9,12.3-50.9L392.8,1714.4z"/>
				<path class="st22" d="M556.6,1731.3c0,0,3.4,41.9,0.6,55.5c-1.5,7.3-9.6,22.3-5.9,29.1c3.7,6.9,8,8.6,8,8.6l96.7,1.5
					c5.3,0.1,1.8-3.3-2.5-6.3c-7-5-12.6-8.4-34.8-18.9c-1.4-0.7-6.7-4-8.6-5.1c-4.8-2.9-9.7-7.5-13.8-12c-6.9-7.6-7.6-44.5-7.6-44.5
					L556.6,1731.3z"/>
				<path class="st27" d="M632.2,1174.8c0,0,12.2,68,4.2,112.5c-8,44.6-46.4,457.6-46.4,457.6l-42.6,2.4c0,0-8.9-172.5-7.3-196.5
					c1.6-24,14.3-64.2,14.3-64.2l-4.2-139.3l53.8-183L632.2,1174.8z"/>
				<path class="st15" d="M530.2,1137.5c0,0-53.4,66.2-61.4,107.4c-8,41.1,2.3,174-13,227.9c-8.3,29.2-39.9,74.2-44.7,112
					c-4.8,37.7-23.6,136.5-23.6,136.5l42.6,8.3l96.1-224.7l54.7-207.9l45.9-151.8L530.2,1137.5z"/>
				<path class="st25" d="M412.2,1798.9c-23.2,4.2-38.7-9.2-46.7-19.2c-5.9,11.3-9.5,25.5-5.2,34.8c3.8,8.2,14.2,10.4,23,10.8
					c9.3,0.3,18-4.5,22.6-12.4C408.1,1809.1,410.3,1804.5,412.2,1798.9z"/>
				<path class="st25" d="M610.2,1795.7c-25.6,6.5-44.5,2.1-55.1-2.1c-2.7,7.6-6.3,17.1-4.4,22.6c2.3,6.7,5.7,8.8,8.6,8.9
					c23.4,0.6,85.6,0.9,103.4,1.1c2.5,0,3.9-2.8,2.3-4.7C660.6,1816.3,612.1,1796.8,610.2,1795.7z"/>
			</g>
			<path class="st20" d="M641.2,758c-7.6-49.2-52.1-84.7-98.7-60.8c-10.5,5.4-24.7,16.3-31.9,25.6c-19.9,25.5-24.7,57.2-45.8,81.8
				c-18.2,21.2-66.8,17.2-89.4,33.5c-22.7,16.3-38.6,45.5-38.6,80.4c0,39.1,8.8,80.6,39.1,105.3c30.3,24.7,73.3,30.9,111,20.4
				c37.6-10.5,69.9-36.1,93.2-67.5c23.2-31.4,39.7-65.8,51.3-103.2C644.2,831.8,646,789.9,641.2,758z"/>
			<path class="st24" d="M470.7,824.8c0,0-57.2-102.1-71.1-123.8c-13.9-21.7-50.2-107.9-51.5-111.3c-1.3-3.4,25-44.2,19.1-45.6
				c-5.9-1.4-12.3,21.5-18.6,18.8c-6.3-2.7-24.5-57.9-28.1-55.2c-6.7,5.1,9.8,34.2,6.3,36.1c-3.6,1.8-14.3-32-21.3-31
				c-7,1,13.3,31,11.3,33.7c-2,2.7-23-25.6-26.8-19.6c-2.1,3.3,19.3,24.7,15.2,26.7c-4.1,2-23.2-11.8-25.2-7.8
				c-2,4,17.6,9.4,23.5,20.2c5.9,10.8,15.9,15.4,20,35.3c4.2,19.9,10.4,92,31.6,127.9c21.3,35.9,68,115.5,68,115.5L470.7,824.8z"/>
			<g>
				<path class="st23" d="M631.7,946.1l-45.9,26.3c0,0,87,114.6,92,119.8l36.6-32.4L631.7,946.1z"/>
				<path class="st28" d="M593.6,877.6c0,0,35.6,6.8,79.9,116.6l-61,32.6l-43.5-67.5L593.6,877.6z"/>
				<path class="st23" d="M707.9,884.8c0,0-9.8-1.4-22.2,11c-14,14.1-9.4,131-12.1,158.5c-3.8,37.9,4.3,37.9,4.3,37.9
					s33.4-11.7,41.3-52.4C727,999.1,730,893.3,730,893.3L707.9,884.8z"/>
			</g>
			<path class="st25" d="M536.6,866.4c0,0-44.8-2.8-62.6,16.4c-17.7,19.3,39.3,171.9,42.6,196.4c3.2,24.6-37.3,115.5-37.3,115.5
				s134.2,15.7,164.3-4.2c0,0-6.4-41.3-6.9-78.3c-0.9-65.7,3.7-145.8,1.6-157c-3.2-17.5-32.9-67.8-39.3-74.9
				C592.6,873.4,536.6,866.4,536.6,866.4z"/>
			<path class="st22" d="M551.5,806.6c0,0-0.2,1.3-0.6,3.6c-2,10.8-9.7,46.4-14.9,56.2c-6.3,11.9,21.5,49.7,48.3,45
				c8-1.4-6.7-34.7-6-38.3c1.4-6.8,3.2-16,5.1-25.5c1.1-5.3,2.1-10.8,3.1-15.8c2.9-14.5,5.2-26.3,5.2-26.3L551.5,806.6z"/>
			<path class="st14" d="M550.9,810.2c0.4-2.2,0.6-3.6,0.6-3.6l40.1-1c0,0-2.3,11.8-5.2,26.3c-1,5.1-2.1,10.4-3.1,15.7
				c-6.2-0.9-12.7-3.9-19.1-9.6c-7.1-6.2-11.7-13.6-14.5-21.5C550.2,814,550.6,811.8,550.9,810.2z"/>
			<path class="st22" d="M578.5,715.7c0,0-18.9-2.2-30.7,13.1c-11.8,15.3-24.6,62.6,4.8,88.3c29.4,25.7,58.5-3.4,62.8-34.2
				C619.7,752,621.4,714.6,578.5,715.7z"/>
			<path class="st22" d="M624.1,782.3c-3.5,6.8-9.4,10.6-13.2,8.4c-3.8-2.2-4-9.4-0.4-16.2c3.5-6.8,9.4-10.6,13.2-8.4
				C627.4,768.3,627.6,775.5,624.1,782.3z"/>
			<path class="st20" d="M580.6,710.6c0,0-25.2,45-43.3,47c-18.1,2.1-20.4,26-20.4,26s6.5-55,24.3-65.7
				C559.1,707.3,580.6,710.6,580.6,710.6z"/>
			<path class="st22" d="M542.1,768.9c1.5,8-1.5,15.3-6.6,16.4c-5.1,1-10.4-4.6-11.9-12.6c-1.5-8,1.5-15.3,6.6-16.4
				C535.3,755.3,540.6,761,542.1,768.9z"/>
			<path class="st28" d="M454.8,791.7c0,0,63.3,67.9,72.7,95.3c9.4,27.4-9.2,66.5-34.8,68.2c-25.7,1.7-82.8-120.5-82.8-120.5
				L454.8,791.7z"/>
			<g>
				<path class="st29" d="M771.5,911.8h-43.8c-24.5,0-44.4,2-44.4,26.5v628.8h132.5V938.4C815.9,913.8,796,911.8,771.5,911.8z"/>
				<rect x="723.9" y="927.4" class="st11" width="51.4" height="639.7"/>
				<polygon class="st11" points="732.5,1801 748.5,1824.7 763.3,1801 781.6,1719.5 715.4,1719.5 				"/>
				<polygon class="st0" points="715.4,1719.5 781.6,1719.5 815.9,1567.1 683.4,1567.1 				"/>
				<path class="st29" d="M791.1,894h-82.9c-14.7,0-26.6,11.6-26.6,25.9v92.2h136v-92.2C817.7,905.5,805.8,894,791.1,894z"/>
				<path class="st23" d="M700.2,886.4l6.2-1.7c0,0,21.6,3.4,23.5,8.8c3.5,10-19.8,34-25.5,34c-5.7,0,7.8-22.2,7.8-22.2
					s-11.8,20.9-16.6,18c-4.9-2.9,5.2-19.4,5.2-19.4s-10.8,16.1-12.8,14c-2.1-2.1,5-23.7,5-23.7L700.2,886.4z"/>
				<path class="st0" d="M676.5,1039.8h146.2c0.7,0,1.2-0.5,1.2-1.2v-25.4c0-0.7-0.5-1.2-1.2-1.2H676.5c-0.7,0-1.2,0.5-1.2,1.2v25.4
					C675.4,1039.3,675.9,1039.8,676.5,1039.8z"/>
			</g>
		</g>
	</g>
</g>
</svg>
